<?xml version="1.0" encoding="UTF-8" standalone="no"?>
<!DOCTYPE svg PUBLIC "-//W3C//DTD SVG 1.1//EN"
 "http://www.w3.org/Graphics/SVG/1.1/DTD/svg11.dtd">
<!-- Generated by graphviz version 2.44.0 (0)
 -->
<!-- Title: FST Pages: 1 -->
<svg width="612pt" height="73pt"
 viewBox="0.00 0.00 612.00 72.53" xmlns="http://www.w3.org/2000/svg" xmlns:xlink="http://www.w3.org/1999/xlink">
<g id="graph0" class="graph" transform="scale(0.42 0.42) rotate(0) translate(4 170.75)">
<title>FST</title>
<polygon fill="white" stroke="transparent" points="-4,4 -4,-170.75 1470.47,-170.75 1470.47,4 -4,4"/>
<!-- 0 -->
<g id="node1" class="node">
<title>0</title>
<ellipse fill="none" stroke="black" stroke-width="2" cx="18" cy="-48.75" rx="18" ry="18"/>
<text text-anchor="middle" x="18" y="-45.05" font-family="Times-Roman" font-size="14.00">0</text>
</g>
<!-- 1 -->
<g id="node2" class="node">
<title>1</title>
<ellipse fill="none" stroke="black" cx="113" cy="-48.75" rx="18" ry="18"/>
<text text-anchor="middle" x="113" y="-45.05" font-family="Times-Roman" font-size="14.00">1</text>
</g>
<!-- 0&#45;&gt;1 -->
<g id="edge1" class="edge">
<title>0&#45;&gt;1</title>
<path fill="none" stroke="black" d="M36.06,-48.75C49.61,-48.75 68.82,-48.75 84.53,-48.75"/>
<polygon fill="black" stroke="black" points="84.74,-52.25 94.74,-48.75 84.74,-45.25 84.74,-52.25"/>
<text text-anchor="middle" x="65.5" y="-52.55" font-family="Times-Roman" font-size="14.00">&lt;:&lt;</text>
</g>
<!-- 2 -->
<g id="node3" class="node">
<title>2</title>
<ellipse fill="none" stroke="black" cx="207" cy="-48.75" rx="18" ry="18"/>
<text text-anchor="middle" x="207" y="-45.05" font-family="Times-Roman" font-size="14.00">2</text>
</g>
<!-- 1&#45;&gt;2 -->
<g id="edge2" class="edge">
<title>1&#45;&gt;2</title>
<path fill="none" stroke="black" d="M131.3,-48.75C144.54,-48.75 163.05,-48.75 178.34,-48.75"/>
<polygon fill="black" stroke="black" points="178.77,-52.25 188.77,-48.75 178.77,-45.25 178.77,-52.25"/>
<text text-anchor="middle" x="160" y="-52.55" font-family="Times-Roman" font-size="14.00">Q:Q</text>
</g>
<!-- 3 -->
<g id="node4" class="node">
<title>3</title>
<ellipse fill="none" stroke="black" cx="296" cy="-48.75" rx="18" ry="18"/>
<text text-anchor="middle" x="296" y="-45.05" font-family="Times-Roman" font-size="14.00">3</text>
</g>
<!-- 2&#45;&gt;3 -->
<g id="edge3" class="edge">
<title>2&#45;&gt;3</title>
<path fill="none" stroke="black" d="M225.19,-48.75C237.34,-48.75 253.89,-48.75 267.82,-48.75"/>
<polygon fill="black" stroke="black" points="267.85,-52.25 277.85,-48.75 267.85,-45.25 267.85,-52.25"/>
<text text-anchor="middle" x="251.5" y="-52.55" font-family="Times-Roman" font-size="14.00">u:u</text>
</g>
<!-- 4 -->
<g id="node5" class="node">
<title>4</title>
<ellipse fill="none" stroke="black" cx="384" cy="-48.75" rx="18" ry="18"/>
<text text-anchor="middle" x="384" y="-45.05" font-family="Times-Roman" font-size="14.00">4</text>
</g>
<!-- 3&#45;&gt;4 -->
<g id="edge4" class="edge">
<title>3&#45;&gt;4</title>
<path fill="none" stroke="black" d="M314.4,-48.75C326.25,-48.75 342.18,-48.75 355.71,-48.75"/>
<polygon fill="black" stroke="black" points="355.92,-52.25 365.92,-48.75 355.92,-45.25 355.92,-52.25"/>
<text text-anchor="middle" x="340" y="-52.55" font-family="Times-Roman" font-size="14.00">a:a</text>
</g>
<!-- 5 -->
<g id="node6" class="node">
<title>5</title>
<ellipse fill="none" stroke="black" cx="473" cy="-48.75" rx="18" ry="18"/>
<text text-anchor="middle" x="473" y="-45.05" font-family="Times-Roman" font-size="14.00">5</text>
</g>
<!-- 4&#45;&gt;5 -->
<g id="edge5" class="edge">
<title>4&#45;&gt;5</title>
<path fill="none" stroke="black" d="M402.19,-48.75C414.34,-48.75 430.89,-48.75 444.82,-48.75"/>
<polygon fill="black" stroke="black" points="444.85,-52.25 454.85,-48.75 444.85,-45.25 444.85,-52.25"/>
<text text-anchor="middle" x="428.5" y="-52.55" font-family="Times-Roman" font-size="14.00">n:n</text>
</g>
<!-- 6 -->
<g id="node7" class="node">
<title>6</title>
<ellipse fill="none" stroke="black" cx="555" cy="-48.75" rx="18" ry="18"/>
<text text-anchor="middle" x="555" y="-45.05" font-family="Times-Roman" font-size="14.00">6</text>
</g>
<!-- 5&#45;&gt;6 -->
<g id="edge6" class="edge">
<title>5&#45;&gt;6</title>
<path fill="none" stroke="black" d="M491.36,-48.75C501.7,-48.75 515.06,-48.75 526.78,-48.75"/>
<polygon fill="black" stroke="black" points="526.95,-52.25 536.95,-48.75 526.95,-45.25 526.95,-52.25"/>
<text text-anchor="middle" x="514" y="-52.55" font-family="Times-Roman" font-size="14.00">t:t</text>
</g>
<!-- 7 -->
<g id="node8" class="node">
<title>7</title>
<ellipse fill="none" stroke="black" cx="647" cy="-94.75" rx="18" ry="18"/>
<text text-anchor="middle" x="647" y="-91.05" font-family="Times-Roman" font-size="14.00">7</text>
</g>
<!-- 6&#45;&gt;7 -->
<g id="edge7" class="edge">
<title>6&#45;&gt;7</title>
<path fill="none" stroke="black" d="M571.27,-56.55C584.97,-63.56 605.34,-73.97 621.35,-82.15"/>
<polygon fill="black" stroke="black" points="620.16,-85.47 630.66,-86.91 623.35,-79.24 620.16,-85.47"/>
<text text-anchor="middle" x="601" y="-80.55" font-family="Times-Roman" font-size="14.00">N:N</text>
</g>
<!-- 8 -->
<g id="node9" class="node">
<title>8</title>
<ellipse fill="none" stroke="black" cx="745" cy="-94.75" rx="18" ry="18"/>
<text text-anchor="middle" x="745" y="-91.05" font-family="Times-Roman" font-size="14.00">8</text>
</g>
<!-- 7&#45;&gt;8 -->
<g id="edge8" class="edge">
<title>7&#45;&gt;8</title>
<path fill="none" stroke="black" d="M665.16,-94.75C679.5,-94.75 700.19,-94.75 716.78,-94.75"/>
<polygon fill="black" stroke="black" points="716.99,-98.25 726.99,-94.75 716.99,-91.25 716.99,-98.25"/>
<text text-anchor="middle" x="696" y="-98.55" font-family="Times-Roman" font-size="14.00">m:m</text>
</g>
<!-- 9 -->
<g id="node10" class="node">
<title>9</title>
<ellipse fill="none" stroke="black" cx="745" cy="-148.75" rx="18" ry="18"/>
<text text-anchor="middle" x="745" y="-145.05" font-family="Times-Roman" font-size="14.00">9</text>
</g>
<!-- 7&#45;&gt;9 -->
<g id="edge9" class="edge">
<title>7&#45;&gt;9</title>
<path fill="none" stroke="black" d="M662.91,-103.75C668.28,-106.95 674.39,-110.55 680,-113.75 693.02,-121.17 707.68,-129.21 719.68,-135.71"/>
<polygon fill="black" stroke="black" points="718.19,-138.89 728.66,-140.55 721.52,-132.73 718.19,-138.89"/>
<text text-anchor="middle" x="696" y="-134.55" font-family="Times-Roman" font-size="14.00">o:o</text>
</g>
<!-- 10 -->
<g id="node11" class="node">
<title>10</title>
<ellipse fill="none" stroke="black" cx="844.75" cy="-65.75" rx="23" ry="23"/>
<text text-anchor="middle" x="844.75" y="-62.05" font-family="Times-Roman" font-size="14.00">10</text>
</g>
<!-- 8&#45;&gt;10 -->
<g id="edge10" class="edge">
<title>8&#45;&gt;10</title>
<path fill="none" stroke="black" d="M762.58,-89.83C776.29,-85.76 796.15,-79.87 812.78,-74.93"/>
<polygon fill="black" stroke="black" points="814.05,-78.21 822.64,-72.01 812.06,-71.5 814.05,-78.21"/>
<text text-anchor="middle" x="792.5" y="-87.55" font-family="Times-Roman" font-size="14.00">o:o</text>
</g>
<!-- 11 -->
<g id="node12" class="node">
<title>11</title>
<ellipse fill="none" stroke="black" cx="844.75" cy="-130.75" rx="23" ry="23"/>
<text text-anchor="middle" x="844.75" y="-127.05" font-family="Times-Roman" font-size="14.00">11</text>
</g>
<!-- 9&#45;&gt;11 -->
<g id="edge11" class="edge">
<title>9&#45;&gt;11</title>
<path fill="none" stroke="black" d="M763.03,-145.61C776.49,-143.13 795.66,-139.6 811.94,-136.61"/>
<polygon fill="black" stroke="black" points="812.93,-139.98 822.13,-134.73 811.66,-133.1 812.93,-139.98"/>
<text text-anchor="middle" x="792.5" y="-145.55" font-family="Times-Roman" font-size="14.00">u:u</text>
</g>
<!-- 10&#45;&gt;6 -->
<g id="edge12" class="edge">
<title>10&#45;&gt;6</title>
<path fill="none" stroke="black" d="M821.71,-64.45C769.78,-61.38 639.82,-53.7 583.14,-50.35"/>
<polygon fill="black" stroke="black" points="583.33,-46.86 573.14,-49.76 582.91,-53.84 583.33,-46.86"/>
<text text-anchor="middle" x="696" y="-61.55" font-family="Times-Roman" font-size="14.00">d:d</text>
</g>
<!-- 12 -->
<g id="node13" class="node">
<title>12</title>
<ellipse fill="none" stroke="black" cx="943.24" cy="-92.75" rx="23" ry="23"/>
<text text-anchor="middle" x="943.24" y="-89.05" font-family="Times-Roman" font-size="14.00">12</text>
</g>
<!-- 11&#45;&gt;12 -->
<g id="edge13" class="edge">
<title>11&#45;&gt;12</title>
<path fill="none" stroke="black" d="M866.21,-122.69C879.65,-117.4 897.44,-110.39 912.43,-104.49"/>
<polygon fill="black" stroke="black" points="913.79,-107.72 921.81,-100.8 911.22,-101.2 913.79,-107.72"/>
<text text-anchor="middle" x="894" y="-119.55" font-family="Times-Roman" font-size="14.00">n:n</text>
</g>
<!-- 13 -->
<g id="node14" class="node">
<title>13</title>
<ellipse fill="none" stroke="black" cx="1047.74" cy="-26.75" rx="23" ry="23"/>
<text text-anchor="middle" x="1047.74" y="-23.05" font-family="Times-Roman" font-size="14.00">13</text>
</g>
<!-- 12&#45;&gt;13 -->
<g id="edge14" class="edge">
<title>12&#45;&gt;13</title>
<path fill="none" stroke="black" d="M963.04,-80.64C978.79,-70.5 1001.49,-55.89 1019.27,-44.44"/>
<polygon fill="black" stroke="black" points="1021.55,-47.13 1028.06,-38.78 1017.76,-41.25 1021.55,-47.13"/>
<text text-anchor="middle" x="995.49" y="-70.55" font-family="Times-Roman" font-size="14.00">&gt;:&gt;</text>
</g>
<!-- 13&#45;&gt;6 -->
<g id="edge15" class="edge">
<title>13&#45;&gt;6</title>
<path fill="none" stroke="black" d="M1025.3,-21.42C1004.66,-16.77 972.52,-10.75 944.24,-10.75 646,-10.75 646,-10.75 646,-10.75 621.82,-10.75 596.65,-22.54 579.1,-32.98"/>
<polygon fill="black" stroke="black" points="576.8,-30.29 570.19,-38.56 580.52,-36.22 576.8,-30.29"/>
<text text-anchor="middle" x="792.5" y="-14.55" font-family="Times-Roman" font-size="14.00">&lt;:&lt;</text>
</g>
<!-- 14 -->
<g id="node15" class="node">
<title>14</title>
<ellipse fill="none" stroke="black" cx="1147.24" cy="-26.75" rx="23" ry="23"/>
<text text-anchor="middle" x="1147.24" y="-23.05" font-family="Times-Roman" font-size="14.00">14</text>
</g>
<!-- 13&#45;&gt;14 -->
<g id="edge16" class="edge">
<title>13&#45;&gt;14</title>
<path fill="none" stroke="black" d="M1070.86,-26.75C1083.58,-26.75 1099.78,-26.75 1113.9,-26.75"/>
<polygon fill="black" stroke="black" points="1114.2,-30.25 1124.2,-26.75 1114.2,-23.25 1114.2,-30.25"/>
<text text-anchor="middle" x="1097.49" y="-30.55" font-family="Times-Roman" font-size="14.00">V:V</text>
</g>
<!-- 15 -->
<g id="node16" class="node">
<title>15</title>
<ellipse fill="none" stroke="black" cx="1244.73" cy="-26.75" rx="23" ry="23"/>
<text text-anchor="middle" x="1244.73" y="-23.05" font-family="Times-Roman" font-size="14.00">15</text>
</g>
<!-- 14&#45;&gt;15 -->
<g id="edge17" class="edge">
<title>14&#45;&gt;15</title>
<path fill="none" stroke="black" d="M1170.38,-26.75C1182.56,-26.75 1197.88,-26.75 1211.37,-26.75"/>
<polygon fill="black" stroke="black" points="1211.7,-30.25 1221.7,-26.75 1211.7,-23.25 1211.7,-30.25"/>
<text text-anchor="middle" x="1195.98" y="-30.55" font-family="Times-Roman" font-size="14.00">e:e</text>
</g>
<!-- 16 -->
<g id="node17" class="node">
<title>16</title>
<ellipse fill="none" stroke="black" cx="1337.23" cy="-26.75" rx="23" ry="23"/>
<text text-anchor="middle" x="1337.23" y="-23.05" font-family="Times-Roman" font-size="14.00">16</text>
</g>
<!-- 15&#45;&gt;16 -->
<g id="edge18" class="edge">
<title>15&#45;&gt;16</title>
<path fill="none" stroke="black" d="M1267.64,-26.75C1278.56,-26.75 1291.99,-26.75 1304.05,-26.75"/>
<polygon fill="black" stroke="black" points="1304.21,-30.25 1314.21,-26.75 1304.21,-23.25 1304.21,-30.25"/>
<text text-anchor="middle" x="1290.98" y="-30.55" font-family="Times-Roman" font-size="14.00">r:r</text>
</g>
<!-- 17 -->
<g id="node18" class="node">
<title>17</title>
<ellipse fill="none" stroke="black" cx="1439.72" cy="-26.75" rx="22.96" ry="22.96"/>
<ellipse fill="none" stroke="black" cx="1439.72" cy="-26.75" rx="27" ry="27"/>
<text text-anchor="middle" x="1439.72" y="-23.05" font-family="Times-Roman" font-size="14.00">17</text>
</g>
<!-- 16&#45;&gt;17 -->
<g id="edge19" class="edge">
<title>16&#45;&gt;17</title>
<path fill="none" stroke="black" d="M1360.03,-26.75C1372.48,-26.75 1388.41,-26.75 1402.67,-26.75"/>
<polygon fill="black" stroke="black" points="1402.68,-30.25 1412.68,-26.75 1402.68,-23.25 1402.68,-30.25"/>
<text text-anchor="middle" x="1386.48" y="-30.55" font-family="Times-Roman" font-size="14.00">b:b</text>
</g>
</g>
</svg>
